<svg
  xmlns="http://www.w3.org/2000/svg"
  viewBox="0 0 880 376" width="880" height="376"
  role="img" aria-label="Commit rhythm: 86 pushes over 90 days, busiest hour midnight, 33% between 10pm and 3am."
  font-family="ui-monospace, SFMono-Regular, 'SF Mono', Menlo, Consolas, monospace"
>
  <defs>
    <radialGradient id="bg" cx="50%" cy="40%" r="80%">
      <stop offset="0%" stop-color="#141414" />
      <stop offset="100%" stop-color="#080808" />
    </radialGradient>
    <style>
      .ink { fill: #F2EFE8 } .dim { fill: #7E7B75 } .faint { fill: #413F3B }
      .serif { font-family: Georgia, 'Iowan Old Style', 'Times New Roman', serif }
      .rise { opacity: 0; animation: rise .8s cubic-bezier(.16,1,.3,1) forwards }
      @keyframes rise { from { opacity: 0; transform: translateY(5px) } to { opacity: 1; transform: none } }
      .frame {
        fill: none; stroke: #2B2926; stroke-width: 1;
        stroke-dasharray: 2512; stroke-dashoffset: 2512;
        animation: draw 1.2s cubic-bezier(.16,1,.3,1) forwards;
      }
      @keyframes draw { to { stroke-dashoffset: 0 } }
    </style>
  </defs>
  <rect x="1" y="1" width="878" height="374" rx="7" fill="url(#bg)" />
  <rect class="frame" x="1" y="1" width="878" height="374" rx="7" />

  <text class="serif faint rise" x="40" y="44" font-size="11" letter-spacing="3.2" style="animation-delay:.45s">W H E N   I   C O M M I T</text>
  <text class="dim rise" x="40" y="68" font-size="12.5" style="animation-delay:.5s">86 pushes · last 90 days · America/New_York</text>
  <line x1="40" y1="86" x2="840" y2="86" stroke="#2B2926" />
  <text class="faint" x="84.5" y="108" font-size="10" text-anchor="middle">12a</text>
  <text class="faint" x="258.5" y="108" font-size="10" text-anchor="middle">6a</text>
  <text class="faint" x="432.5" y="108" font-size="10" text-anchor="middle">12p</text>
  <text class="faint" x="606.5" y="108" font-size="10" text-anchor="middle">6p</text>
  <text class="faint" x="751.5" y="108" font-size="10" text-anchor="middle">11p</text>

    <g>
      <text class="serif faint" x="56" y="137" font-size="9.5" letter-spacing="1.4" text-anchor="end">MON</text>
      <rect class="rise" x="74" y="122" width="21" height="21" rx="2" fill="#F2EFE8" fill-opacity="0.47" style="animation-delay:0.70s"><title>MON 00:00 — 2 pushes</title></rect>
      <rect class="rise" x="103" y="122" width="21" height="21" rx="2" fill="none" stroke="#413F3B" style="animation-delay:0.72s" />
      <rect class="rise" x="132" y="122" width="21" height="21" rx="2" fill="none" stroke="#413F3B" style="animation-delay:0.74s" />
      <rect class="rise" x="161" y="122" width="21" height="21" rx="2" fill="none" stroke="#413F3B" style="animation-delay:0.77s" />
      <rect class="rise" x="190" y="122" width="21" height="21" rx="2" fill="none" stroke="#413F3B" style="animation-delay:0.79s" />
      <rect class="rise" x="219" y="122" width="21" height="21" rx="2" fill="none" stroke="#413F3B" style="animation-delay:0.81s" />
      <rect class="rise" x="248" y="122" width="21" height="21" rx="2" fill="#F2EFE8" fill-opacity="0.39" style="animation-delay:0.83s"><title>MON 06:00 — 1 push</title></rect>
      <rect class="rise" x="277" y="122" width="21" height="21" rx="2" fill="#F2EFE8" fill-opacity="0.47" style="animation-delay:0.85s"><title>MON 07:00 — 2 pushes</title></rect>
      <rect class="rise" x="306" y="122" width="21" height="21" rx="2" fill="none" stroke="#413F3B" style="animation-delay:0.88s" />
      <rect class="rise" x="335" y="122" width="21" height="21" rx="2" fill="none" stroke="#413F3B" style="animation-delay:0.90s" />
      <rect class="rise" x="364" y="122" width="21" height="21" rx="2" fill="none" stroke="#413F3B" style="animation-delay:0.92s" />
      <rect class="rise" x="393" y="122" width="21" height="21" rx="2" fill="none" stroke="#413F3B" style="animation-delay:0.94s" />
      <rect class="rise" x="422" y="122" width="21" height="21" rx="2" fill="none" stroke="#413F3B" style="animation-delay:0.96s" />
      <rect class="rise" x="451" y="122" width="21" height="21" rx="2" fill="none" stroke="#413F3B" style="animation-delay:0.99s" />
      <rect class="rise" x="480" y="122" width="21" height="21" rx="2" fill="#F2EFE8" fill-opacity="0.39" style="animation-delay:1.01s"><title>MON 14:00 — 1 push</title></rect>
      <rect class="rise" x="509" y="122" width="21" height="21" rx="2" fill="none" stroke="#413F3B" style="animation-delay:1.03s" />
      <rect class="rise" x="538" y="122" width="21" height="21" rx="2" fill="none" stroke="#413F3B" style="animation-delay:1.05s" />
      <rect class="rise" x="567" y="122" width="21" height="21" rx="2" fill="none" stroke="#413F3B" style="animation-delay:1.07s" />
      <rect class="rise" x="596" y="122" width="21" height="21" rx="2" fill="none" stroke="#413F3B" style="animation-delay:1.10s" />
      <rect class="rise" x="625" y="122" width="21" height="21" rx="2" fill="none" stroke="#413F3B" style="animation-delay:1.12s" />
      <rect class="rise" x="654" y="122" width="21" height="21" rx="2" fill="#F2EFE8" fill-opacity="0.56" style="animation-delay:1.14s"><title>MON 20:00 — 3 pushes</title></rect>
      <rect class="rise" x="683" y="122" width="21" height="21" rx="2" fill="#F2EFE8" fill-opacity="0.47" style="animation-delay:1.16s"><title>MON 21:00 — 2 pushes</title></rect>
      <rect class="rise" x="712" y="122" width="21" height="21" rx="2" fill="none" stroke="#413F3B" style="animation-delay:1.18s" />
      <rect class="rise" x="741" y="122" width="21" height="21" rx="2" fill="none" stroke="#413F3B" style="animation-delay:1.21s" />
    </g>
    <g>
      <text class="serif faint" x="56" y="166" font-size="9.5" letter-spacing="1.4" text-anchor="end">TUE</text>
      <rect class="rise" x="74" y="151" width="21" height="21" rx="2" fill="none" stroke="#413F3B" style="animation-delay:0.73s" />
      <rect class="rise" x="103" y="151" width="21" height="21" rx="2" fill="none" stroke="#413F3B" style="animation-delay:0.75s" />
      <rect class="rise" x="132" y="151" width="21" height="21" rx="2" fill="#F2EFE8" fill-opacity="0.39" style="animation-delay:0.77s"><title>TUE 02:00 — 1 push</title></rect>
      <rect class="rise" x="161" y="151" width="21" height="21" rx="2" fill="none" stroke="#413F3B" style="animation-delay:0.80s" />
      <rect class="rise" x="190" y="151" width="21" height="21" rx="2" fill="none" stroke="#413F3B" style="animation-delay:0.82s" />
      <rect class="rise" x="219" y="151" width="21" height="21" rx="2" fill="none" stroke="#413F3B" style="animation-delay:0.84s" />
      <rect class="rise" x="248" y="151" width="21" height="21" rx="2" fill="none" stroke="#413F3B" style="animation-delay:0.86s" />
      <rect class="rise" x="277" y="151" width="21" height="21" rx="2" fill="#F2EFE8" fill-opacity="0.39" style="animation-delay:0.88s"><title>TUE 07:00 — 1 push</title></rect>
      <rect class="rise" x="306" y="151" width="21" height="21" rx="2" fill="none" stroke="#413F3B" style="animation-delay:0.91s" />
      <rect class="rise" x="335" y="151" width="21" height="21" rx="2" fill="#F2EFE8" fill-opacity="0.39" style="animation-delay:0.93s"><title>TUE 09:00 — 1 push</title></rect>
      <rect class="rise" x="364" y="151" width="21" height="21" rx="2" fill="none" stroke="#413F3B" style="animation-delay:0.95s" />
      <rect class="rise" x="393" y="151" width="21" height="21" rx="2" fill="none" stroke="#413F3B" style="animation-delay:0.97s" />
      <rect class="rise" x="422" y="151" width="21" height="21" rx="2" fill="none" stroke="#413F3B" style="animation-delay:0.99s" />
      <rect class="rise" x="451" y="151" width="21" height="21" rx="2" fill="none" stroke="#413F3B" style="animation-delay:1.02s" />
      <rect class="rise" x="480" y="151" width="21" height="21" rx="2" fill="none" stroke="#413F3B" style="animation-delay:1.04s" />
      <rect class="rise" x="509" y="151" width="21" height="21" rx="2" fill="none" stroke="#413F3B" style="animation-delay:1.06s" />
      <rect class="rise" x="538" y="151" width="21" height="21" rx="2" fill="none" stroke="#413F3B" style="animation-delay:1.08s" />
      <rect class="rise" x="567" y="151" width="21" height="21" rx="2" fill="none" stroke="#413F3B" style="animation-delay:1.10s" />
      <rect class="rise" x="596" y="151" width="21" height="21" rx="2" fill="none" stroke="#413F3B" style="animation-delay:1.13s" />
      <rect class="rise" x="625" y="151" width="21" height="21" rx="2" fill="#F2EFE8" fill-opacity="0.47" style="animation-delay:1.15s"><title>TUE 19:00 — 2 pushes</title></rect>
      <rect class="rise" x="654" y="151" width="21" height="21" rx="2" fill="none" stroke="#413F3B" style="animation-delay:1.17s" />
      <rect class="rise" x="683" y="151" width="21" height="21" rx="2" fill="#F2EFE8" fill-opacity="0.39" style="animation-delay:1.19s"><title>TUE 21:00 — 1 push</title></rect>
      <rect class="rise" x="712" y="151" width="21" height="21" rx="2" fill="none" stroke="#413F3B" style="animation-delay:1.21s" />
      <rect class="rise" x="741" y="151" width="21" height="21" rx="2" fill="none" stroke="#413F3B" style="animation-delay:1.24s" />
    </g>
    <g>
      <text class="serif faint" x="56" y="195" font-size="9.5" letter-spacing="1.4" text-anchor="end">WED</text>
      <rect class="rise" x="74" y="180" width="21" height="21" rx="2" fill="none" stroke="#413F3B" style="animation-delay:0.76s" />
      <rect class="rise" x="103" y="180" width="21" height="21" rx="2" fill="none" stroke="#413F3B" style="animation-delay:0.78s" />
      <rect class="rise" x="132" y="180" width="21" height="21" rx="2" fill="none" stroke="#413F3B" style="animation-delay:0.80s" />
      <rect class="rise" x="161" y="180" width="21" height="21" rx="2" fill="none" stroke="#413F3B" style="animation-delay:0.83s" />
      <rect class="rise" x="190" y="180" width="21" height="21" rx="2" fill="none" stroke="#413F3B" style="animation-delay:0.85s" />
      <rect class="rise" x="219" y="180" width="21" height="21" rx="2" fill="#F2EFE8" fill-opacity="0.65" style="animation-delay:0.87s"><title>WED 05:00 — 4 pushes</title></rect>
      <rect class="rise" x="248" y="180" width="21" height="21" rx="2" fill="none" stroke="#413F3B" style="animation-delay:0.89s" />
      <rect class="rise" x="277" y="180" width="21" height="21" rx="2" fill="none" stroke="#413F3B" style="animation-delay:0.91s" />
      <rect class="rise" x="306" y="180" width="21" height="21" rx="2" fill="#F2EFE8" fill-opacity="0.47" style="animation-delay:0.94s"><title>WED 08:00 — 2 pushes</title></rect>
      <rect class="rise" x="335" y="180" width="21" height="21" rx="2" fill="#F2EFE8" fill-opacity="0.39" style="animation-delay:0.96s"><title>WED 09:00 — 1 push</title></rect>
      <rect class="rise" x="364" y="180" width="21" height="21" rx="2" fill="none" stroke="#413F3B" style="animation-delay:0.98s" />
      <rect class="rise" x="393" y="180" width="21" height="21" rx="2" fill="none" stroke="#413F3B" style="animation-delay:1.00s" />
      <rect class="rise" x="422" y="180" width="21" height="21" rx="2" fill="none" stroke="#413F3B" style="animation-delay:1.02s" />
      <rect class="rise" x="451" y="180" width="21" height="21" rx="2" fill="none" stroke="#413F3B" style="animation-delay:1.05s" />
      <rect class="rise" x="480" y="180" width="21" height="21" rx="2" fill="none" stroke="#413F3B" style="animation-delay:1.07s" />
      <rect class="rise" x="509" y="180" width="21" height="21" rx="2" fill="#F2EFE8" fill-opacity="0.39" style="animation-delay:1.09s"><title>WED 15:00 — 1 push</title></rect>
      <rect class="rise" x="538" y="180" width="21" height="21" rx="2" fill="none" stroke="#413F3B" style="animation-delay:1.11s" />
      <rect class="rise" x="567" y="180" width="21" height="21" rx="2" fill="none" stroke="#413F3B" style="animation-delay:1.13s" />
      <rect class="rise" x="596" y="180" width="21" height="21" rx="2" fill="none" stroke="#413F3B" style="animation-delay:1.16s" />
      <rect class="rise" x="625" y="180" width="21" height="21" rx="2" fill="#F2EFE8" fill-opacity="0.39" style="animation-delay:1.18s"><title>WED 19:00 — 1 push</title></rect>
      <rect class="rise" x="654" y="180" width="21" height="21" rx="2" fill="#F2EFE8" fill-opacity="0.91" style="animation-delay:1.20s"><title>WED 20:00 — 7 pushes</title></rect>
      <rect class="rise" x="683" y="180" width="21" height="21" rx="2" fill="none" stroke="#413F3B" style="animation-delay:1.22s" />
      <rect class="rise" x="712" y="180" width="21" height="21" rx="2" fill="none" stroke="#413F3B" style="animation-delay:1.24s" />
      <rect class="rise" x="741" y="180" width="21" height="21" rx="2" fill="none" stroke="#413F3B" style="animation-delay:1.27s" />
    </g>
    <g>
      <text class="serif faint" x="56" y="224" font-size="9.5" letter-spacing="1.4" text-anchor="end">THU</text>
      <rect class="rise" x="74" y="209" width="21" height="21" rx="2" fill="#F2EFE8" fill-opacity="0.39" style="animation-delay:0.79s"><title>THU 00:00 — 1 push</title></rect>
      <rect class="rise" x="103" y="209" width="21" height="21" rx="2" fill="none" stroke="#413F3B" style="animation-delay:0.81s" />
      <rect class="rise" x="132" y="209" width="21" height="21" rx="2" fill="none" stroke="#413F3B" style="animation-delay:0.83s" />
      <rect class="rise" x="161" y="209" width="21" height="21" rx="2" fill="#F2EFE8" fill-opacity="0.39" style="animation-delay:0.86s"><title>THU 03:00 — 1 push</title></rect>
      <rect class="rise" x="190" y="209" width="21" height="21" rx="2" fill="none" stroke="#413F3B" style="animation-delay:0.88s" />
      <rect class="rise" x="219" y="209" width="21" height="21" rx="2" fill="none" stroke="#413F3B" style="animation-delay:0.90s" />
      <rect class="rise" x="248" y="209" width="21" height="21" rx="2" fill="#F2EFE8" fill-opacity="0.39" style="animation-delay:0.92s"><title>THU 06:00 — 1 push</title></rect>
      <rect class="rise" x="277" y="209" width="21" height="21" rx="2" fill="#F2EFE8" fill-opacity="0.39" style="animation-delay:0.94s"><title>THU 07:00 — 1 push</title></rect>
      <rect class="rise" x="306" y="209" width="21" height="21" rx="2" fill="none" stroke="#413F3B" style="animation-delay:0.97s" />
      <rect class="rise" x="335" y="209" width="21" height="21" rx="2" fill="none" stroke="#413F3B" style="animation-delay:0.99s" />
      <rect class="rise" x="364" y="209" width="21" height="21" rx="2" fill="none" stroke="#413F3B" style="animation-delay:1.01s" />
      <rect class="rise" x="393" y="209" width="21" height="21" rx="2" fill="none" stroke="#413F3B" style="animation-delay:1.03s" />
      <rect class="rise" x="422" y="209" width="21" height="21" rx="2" fill="none" stroke="#413F3B" style="animation-delay:1.05s" />
      <rect class="rise" x="451" y="209" width="21" height="21" rx="2" fill="none" stroke="#413F3B" style="animation-delay:1.08s" />
      <rect class="rise" x="480" y="209" width="21" height="21" rx="2" fill="none" stroke="#413F3B" style="animation-delay:1.10s" />
      <rect class="rise" x="509" y="209" width="21" height="21" rx="2" fill="none" stroke="#413F3B" style="animation-delay:1.12s" />
      <rect class="rise" x="538" y="209" width="21" height="21" rx="2" fill="none" stroke="#413F3B" style="animation-delay:1.14s" />
      <rect class="rise" x="567" y="209" width="21" height="21" rx="2" fill="none" stroke="#413F3B" style="animation-delay:1.16s" />
      <rect class="rise" x="596" y="209" width="21" height="21" rx="2" fill="#F2EFE8" fill-opacity="0.65" style="animation-delay:1.19s"><title>THU 18:00 — 4 pushes</title></rect>
      <rect class="rise" x="625" y="209" width="21" height="21" rx="2" fill="#F2EFE8" fill-opacity="0.65" style="animation-delay:1.21s"><title>THU 19:00 — 4 pushes</title></rect>
      <rect class="rise" x="654" y="209" width="21" height="21" rx="2" fill="none" stroke="#413F3B" style="animation-delay:1.23s" />
      <rect class="rise" x="683" y="209" width="21" height="21" rx="2" fill="none" stroke="#413F3B" style="animation-delay:1.25s" />
      <rect class="rise" x="712" y="209" width="21" height="21" rx="2" fill="none" stroke="#413F3B" style="animation-delay:1.27s" />
      <rect class="rise" x="741" y="209" width="21" height="21" rx="2" fill="none" stroke="#413F3B" style="animation-delay:1.30s" />
    </g>
    <g>
      <text class="serif faint" x="56" y="253" font-size="9.5" letter-spacing="1.4" text-anchor="end">FRI</text>
      <rect class="rise" x="74" y="238" width="21" height="21" rx="2" fill="#F2EFE8" fill-opacity="0.39" style="animation-delay:0.82s"><title>FRI 00:00 — 1 push</title></rect>
      <rect class="rise" x="103" y="238" width="21" height="21" rx="2" fill="#F2EFE8" fill-opacity="0.39" style="animation-delay:0.84s"><title>FRI 01:00 — 1 push</title></rect>
      <rect class="rise" x="132" y="238" width="21" height="21" rx="2" fill="none" stroke="#413F3B" style="animation-delay:0.86s" />
      <rect class="rise" x="161" y="238" width="21" height="21" rx="2" fill="none" stroke="#413F3B" style="animation-delay:0.89s" />
      <rect class="rise" x="190" y="238" width="21" height="21" rx="2" fill="none" stroke="#413F3B" style="animation-delay:0.91s" />
      <rect class="rise" x="219" y="238" width="21" height="21" rx="2" fill="none" stroke="#413F3B" style="animation-delay:0.93s" />
      <rect class="rise" x="248" y="238" width="21" height="21" rx="2" fill="none" stroke="#413F3B" style="animation-delay:0.95s" />
      <rect class="rise" x="277" y="238" width="21" height="21" rx="2" fill="none" stroke="#413F3B" style="animation-delay:0.97s" />
      <rect class="rise" x="306" y="238" width="21" height="21" rx="2" fill="none" stroke="#413F3B" style="animation-delay:1.00s" />
      <rect class="rise" x="335" y="238" width="21" height="21" rx="2" fill="none" stroke="#413F3B" style="animation-delay:1.02s" />
      <rect class="rise" x="364" y="238" width="21" height="21" rx="2" fill="none" stroke="#413F3B" style="animation-delay:1.04s" />
      <rect class="rise" x="393" y="238" width="21" height="21" rx="2" fill="none" stroke="#413F3B" style="animation-delay:1.06s" />
      <rect class="rise" x="422" y="238" width="21" height="21" rx="2" fill="none" stroke="#413F3B" style="animation-delay:1.08s" />
      <rect class="rise" x="451" y="238" width="21" height="21" rx="2" fill="none" stroke="#413F3B" style="animation-delay:1.11s" />
      <rect class="rise" x="480" y="238" width="21" height="21" rx="2" fill="none" stroke="#413F3B" style="animation-delay:1.13s" />
      <rect class="rise" x="509" y="238" width="21" height="21" rx="2" fill="none" stroke="#413F3B" style="animation-delay:1.15s" />
      <rect class="rise" x="538" y="238" width="21" height="21" rx="2" fill="none" stroke="#413F3B" style="animation-delay:1.17s" />
      <rect class="rise" x="567" y="238" width="21" height="21" rx="2" fill="none" stroke="#413F3B" style="animation-delay:1.19s" />
      <rect class="rise" x="596" y="238" width="21" height="21" rx="2" fill="none" stroke="#413F3B" style="animation-delay:1.22s" />
      <rect class="rise" x="625" y="238" width="21" height="21" rx="2" fill="none" stroke="#413F3B" style="animation-delay:1.24s" />
      <rect class="rise" x="654" y="238" width="21" height="21" rx="2" fill="none" stroke="#413F3B" style="animation-delay:1.26s" />
      <rect class="rise" x="683" y="238" width="21" height="21" rx="2" fill="none" stroke="#413F3B" style="animation-delay:1.28s" />
      <rect class="rise" x="712" y="238" width="21" height="21" rx="2" fill="#F2EFE8" fill-opacity="0.39" style="animation-delay:1.30s"><title>FRI 22:00 — 1 push</title></rect>
      <rect class="rise" x="741" y="238" width="21" height="21" rx="2" fill="none" stroke="#413F3B" style="animation-delay:1.33s" />
    </g>
    <g>
      <text class="serif faint" x="56" y="282" font-size="9.5" letter-spacing="1.4" text-anchor="end">SAT</text>
      <rect class="rise" x="74" y="267" width="21" height="21" rx="2" fill="#F2EFE8" fill-opacity="1.00" style="animation-delay:0.85s"><title>SAT 00:00 — 8 pushes</title></rect>
      <rect class="rise" x="103" y="267" width="21" height="21" rx="2" fill="#F2EFE8" fill-opacity="0.47" style="animation-delay:0.87s"><title>SAT 01:00 — 2 pushes</title></rect>
      <rect class="rise" x="132" y="267" width="21" height="21" rx="2" fill="none" stroke="#413F3B" style="animation-delay:0.89s" />
      <rect class="rise" x="161" y="267" width="21" height="21" rx="2" fill="none" stroke="#413F3B" style="animation-delay:0.92s" />
      <rect class="rise" x="190" y="267" width="21" height="21" rx="2" fill="#F2EFE8" fill-opacity="0.47" style="animation-delay:0.94s"><title>SAT 04:00 — 2 pushes</title></rect>
      <rect class="rise" x="219" y="267" width="21" height="21" rx="2" fill="#F2EFE8" fill-opacity="0.65" style="animation-delay:0.96s"><title>SAT 05:00 — 4 pushes</title></rect>
      <rect class="rise" x="248" y="267" width="21" height="21" rx="2" fill="#F2EFE8" fill-opacity="0.47" style="animation-delay:0.98s"><title>SAT 06:00 — 2 pushes</title></rect>
      <rect class="rise" x="277" y="267" width="21" height="21" rx="2" fill="#F2EFE8" fill-opacity="0.74" style="animation-delay:1.00s"><title>SAT 07:00 — 5 pushes</title></rect>
      <rect class="rise" x="306" y="267" width="21" height="21" rx="2" fill="none" stroke="#413F3B" style="animation-delay:1.03s" />
      <rect class="rise" x="335" y="267" width="21" height="21" rx="2" fill="none" stroke="#413F3B" style="animation-delay:1.05s" />
      <rect class="rise" x="364" y="267" width="21" height="21" rx="2" fill="#F2EFE8" fill-opacity="0.39" style="animation-delay:1.07s"><title>SAT 10:00 — 1 push</title></rect>
      <rect class="rise" x="393" y="267" width="21" height="21" rx="2" fill="none" stroke="#413F3B" style="animation-delay:1.09s" />
      <rect class="rise" x="422" y="267" width="21" height="21" rx="2" fill="none" stroke="#413F3B" style="animation-delay:1.11s" />
      <rect class="rise" x="451" y="267" width="21" height="21" rx="2" fill="none" stroke="#413F3B" style="animation-delay:1.14s" />
      <rect class="rise" x="480" y="267" width="21" height="21" rx="2" fill="none" stroke="#413F3B" style="animation-delay:1.16s" />
      <rect class="rise" x="509" y="267" width="21" height="21" rx="2" fill="none" stroke="#413F3B" style="animation-delay:1.18s" />
      <rect class="rise" x="538" y="267" width="21" height="21" rx="2" fill="none" stroke="#413F3B" style="animation-delay:1.20s" />
      <rect class="rise" x="567" y="267" width="21" height="21" rx="2" fill="none" stroke="#413F3B" style="animation-delay:1.22s" />
      <rect class="rise" x="596" y="267" width="21" height="21" rx="2" fill="none" stroke="#413F3B" style="animation-delay:1.25s" />
      <rect class="rise" x="625" y="267" width="21" height="21" rx="2" fill="none" stroke="#413F3B" style="animation-delay:1.27s" />
      <rect class="rise" x="654" y="267" width="21" height="21" rx="2" fill="none" stroke="#413F3B" style="animation-delay:1.29s" />
      <rect class="rise" x="683" y="267" width="21" height="21" rx="2" fill="none" stroke="#413F3B" style="animation-delay:1.31s" />
      <rect class="rise" x="712" y="267" width="21" height="21" rx="2" fill="none" stroke="#413F3B" style="animation-delay:1.33s" />
      <rect class="rise" x="741" y="267" width="21" height="21" rx="2" fill="#F2EFE8" fill-opacity="0.56" style="animation-delay:1.36s"><title>SAT 23:00 — 3 pushes</title></rect>
    </g>
    <g>
      <text class="serif faint" x="56" y="311" font-size="9.5" letter-spacing="1.4" text-anchor="end">SUN</text>
      <rect class="rise" x="74" y="296" width="21" height="21" rx="2" fill="#F2EFE8" fill-opacity="0.47" style="animation-delay:0.88s"><title>SUN 00:00 — 2 pushes</title></rect>
      <rect class="rise" x="103" y="296" width="21" height="21" rx="2" fill="none" stroke="#413F3B" style="animation-delay:0.90s" />
      <rect class="rise" x="132" y="296" width="21" height="21" rx="2" fill="none" stroke="#413F3B" style="animation-delay:0.92s" />
      <rect class="rise" x="161" y="296" width="21" height="21" rx="2" fill="none" stroke="#413F3B" style="animation-delay:0.95s" />
      <rect class="rise" x="190" y="296" width="21" height="21" rx="2" fill="none" stroke="#413F3B" style="animation-delay:0.97s" />
      <rect class="rise" x="219" y="296" width="21" height="21" rx="2" fill="none" stroke="#413F3B" style="animation-delay:0.99s" />
      <rect class="rise" x="248" y="296" width="21" height="21" rx="2" fill="none" stroke="#413F3B" style="animation-delay:1.01s" />
      <rect class="rise" x="277" y="296" width="21" height="21" rx="2" fill="none" stroke="#413F3B" style="animation-delay:1.03s" />
      <rect class="rise" x="306" y="296" width="21" height="21" rx="2" fill="none" stroke="#413F3B" style="animation-delay:1.06s" />
      <rect class="rise" x="335" y="296" width="21" height="21" rx="2" fill="none" stroke="#413F3B" style="animation-delay:1.08s" />
      <rect class="rise" x="364" y="296" width="21" height="21" rx="2" fill="none" stroke="#413F3B" style="animation-delay:1.10s" />
      <rect class="rise" x="393" y="296" width="21" height="21" rx="2" fill="none" stroke="#413F3B" style="animation-delay:1.12s" />
      <rect class="rise" x="422" y="296" width="21" height="21" rx="2" fill="none" stroke="#413F3B" style="animation-delay:1.14s" />
      <rect class="rise" x="451" y="296" width="21" height="21" rx="2" fill="none" stroke="#413F3B" style="animation-delay:1.17s" />
      <rect class="rise" x="480" y="296" width="21" height="21" rx="2" fill="none" stroke="#413F3B" style="animation-delay:1.19s" />
      <rect class="rise" x="509" y="296" width="21" height="21" rx="2" fill="none" stroke="#413F3B" style="animation-delay:1.21s" />
      <rect class="rise" x="538" y="296" width="21" height="21" rx="2" fill="none" stroke="#413F3B" style="animation-delay:1.23s" />
      <rect class="rise" x="567" y="296" width="21" height="21" rx="2" fill="none" stroke="#413F3B" style="animation-delay:1.25s" />
      <rect class="rise" x="596" y="296" width="21" height="21" rx="2" fill="none" stroke="#413F3B" style="animation-delay:1.28s" />
      <rect class="rise" x="625" y="296" width="21" height="21" rx="2" fill="none" stroke="#413F3B" style="animation-delay:1.30s" />
      <rect class="rise" x="654" y="296" width="21" height="21" rx="2" fill="#F2EFE8" fill-opacity="0.39" style="animation-delay:1.32s"><title>SUN 20:00 — 1 push</title></rect>
      <rect class="rise" x="683" y="296" width="21" height="21" rx="2" fill="#F2EFE8" fill-opacity="0.47" style="animation-delay:1.34s"><title>SUN 21:00 — 2 pushes</title></rect>
      <rect class="rise" x="712" y="296" width="21" height="21" rx="2" fill="#F2EFE8" fill-opacity="0.56" style="animation-delay:1.36s"><title>SUN 22:00 — 3 pushes</title></rect>
      <rect class="rise" x="741" y="296" width="21" height="21" rx="2" fill="#F2EFE8" fill-opacity="0.56" style="animation-delay:1.39s"><title>SUN 23:00 — 3 pushes</title></rect>
    </g>
  <g class="rise" style="animation-delay:2.3s">
    <line x1="84.5" y1="114" x2="84.5" y2="331" stroke="#F2EFE8" stroke-width="1" stroke-dasharray="2 3" opacity="0.45" />
    <line x1="40" y1="341" x2="840" y2="341" stroke="#2B2926" />
    <text class="ink" x="40" y="365" font-size="13.5">33% of my pushes land between 10pm and 3am.</text>
    <text class="faint" x="840" y="365" font-size="12" text-anchor="end">busiest hour · midnight</text>
  </g>
</svg>
