<svg xmlns="http://www.w3.org/2000/svg" width="720" height="300" viewBox="0 0 720 300" font-family="ui-monospace, Menlo, SFMono-Regular, monospace"><rect x="0.0" y="0.0" width="720.0" height="300.0" rx="0" fill="#08080a"/><rect x="0.5" y="0.5" width="719.0" height="299.0" rx="0" fill="none" stroke="#1e1e24" stroke-width="1"/><text x="20.0" y="20.0" font-size="9.5" fill="#5a5a66" font-weight="700">⌃⌥⌘SPACE · EVERY PET, ONE PANEL</text><g transform="translate(74,92) scale(2.2)"><rect x="0" y="0" width="36" height="18" fill="#e8552f"/><rect x="8" y="4" width="5" height="5" fill="#111"/><rect x="23" y="4" width="5" height="5" fill="#111"/><rect x="2" y="18" width="5" height="7" fill="#e8552f"/><rect x="11" y="18" width="5" height="7" fill="#e8552f"/><rect x="20" y="18" width="5" height="7" fill="#e8552f"/><rect x="29" y="18" width="5" height="7" fill="#e8552f"/></g><g transform="translate(92,180) scale(0.85)"><path d="M0 62 V26 A26 26 0 0 1 52 26 V62 l-8.7 -7 -8.7 7 -8.6 -7 -8.7 7 -8.7 -7 Z" fill="#5c9160"/><ellipse cx="17" cy="30" rx="5.4" ry="6.8" fill="#111"/><ellipse cx="35" cy="30" rx="5.4" ry="6.8" fill="#111"/><path d="M20 41 A6.5 6.5 0 0 0 33 41 Z" fill="#111"/></g><rect x="272.0" y="18.0" width="420.0" height="264.0" rx="16" fill="#0e0e10" stroke="#3a3a42" stroke-width="1"/><text x="290.0" y="42.0" font-size="11" fill="#8e8e96" font-weight="700">PETS</text><text x="674.0" y="42.0" font-size="10" fill="#8e8e96" text-anchor="end">↑↓  ⏎ toggle   ⌘⏎ its menu   esc</text><rect x="280.0" y="54.0" width="404.0" height="36.0" rx="8" fill="#fa992e" opacity="0.16"/><text x="290.0" y="70.0" font-size="13" fill="#fa992e">Claude Code Pet</text><text x="290.0" y="84.0" font-size="10" fill="#5cd180">on screen</text><text x="674.0" y="74.0" font-size="10" fill="#8e8e96" text-anchor="end">hide</text><text x="290.0" y="112.0" font-size="13" fill="#f5f5f7">cost</text><text x="290.0" y="126.0" font-size="10" fill="#5cd180">on screen</text><text x="674.0" y="116.0" font-size="10" fill="#8e8e96" text-anchor="end">hide</text><text x="290.0" y="154.0" font-size="13" fill="#f5f5f7">mochi</text><text x="290.0" y="168.0" font-size="10" fill="#8c8c95">hidden</text><text x="674.0" y="158.0" font-size="10" fill="#8e8e96" text-anchor="end">show</text><rect x="290.0" y="184.0" width="384.0" height="1.0" rx="0" fill="#ffffff" opacity="0.09"/><text x="290.0" y="212.0" font-size="12" fill="#f5f5f7">Hide every pet</text><text x="674.0" y="212.0" font-size="10" fill="#8e8e96" text-anchor="end">A</text><text x="290.0" y="242.0" font-size="12" fill="#f5f5f7">Tidy — stack down the right edge</text><text x="674.0" y="242.0" font-size="10" fill="#8e8e96" text-anchor="end">T</text><text x="290.0" y="268.0" font-size="10" fill="#8e8e96">A hide all   ·   T tidy   ·   R reload</text></svg>
